<svg xmlns="http://www.w3.org/2000/svg" xmlns:xlink="http://www.w3.org/1999/xlink" width="188" height="54" viewBox="0 0 188 54">
  <defs>
    <clipPath id="clip-CONS-LI-LOGO">
      <rect width="188" height="54"/>
    </clipPath>
  </defs>
  <g id="CONS-LI-LOGO" clip-path="url(#clip-CONS-LI-LOGO)">
    <g id="Gruppe_26" data-name="Gruppe 26" transform="translate(-244.286 -250.559)">
      <path id="Pfad_1" data-name="Pfad 1" d="M274.407,356.776c-1.1,1.489-2.08,2.789-3.04,4.1a36.894,36.894,0,0,1-5.806,6.878,9.286,9.286,0,0,1-5.3,2.016c-7.27.692-11.582-4.681-13.146-9.683a16.688,16.688,0,0,1,.611-11.978,11.076,11.076,0,0,1,6.529-6.2,9.353,9.353,0,0,1,7.571.49,18.337,18.337,0,0,1,3.292,2.278,1.766,1.766,0,0,1,.2,2.885,2.043,2.043,0,0,1-2.811-.013,13.316,13.316,0,0,0-2.619-1.766c-3.092-1.335-5.91-.053-7.646,2.383a11.754,11.754,0,0,0-1.653,9.748,10.658,10.658,0,0,0,4.308,6.8,6.165,6.165,0,0,0,8.42-.895c1.853-2.013,3.388-4.321,5.065-6.5,2.737-3.552,5.371-7.19,8.243-10.629a11.6,11.6,0,0,1,19.131,1.71c.917,1.656,1.556,3.465,2.349,5.271,1.3-1.982,2.7-4.038,4.006-6.148.682-1.1,1.2-2.3,1.814-3.433.5-.929,1.09-1.794,2.291-1.87a1.837,1.837,0,0,1,2.128,1.946c.031,1.017.028,2.035.048,3.053,0,.053.077.1.152.2.924-1.125,1.767-2.314,2.776-3.339a6.534,6.534,0,0,1,5.521-2.347,5.361,5.361,0,0,1,4.116,2.78,16.31,16.31,0,0,1,2.424,7.652c.157,2.28.3,4.561.462,6.841a6.736,6.736,0,0,0,.267,1.02c1.856-2.426,3.6-4.688,5.325-6.962,2.469-3.251,4.9-6.534,7.408-9.752a3.534,3.534,0,0,1,2.934-1.548c1.482.037,2.138.906,1.583,2.337-.337.868-.854,1.664-1.258,2.507a13.637,13.637,0,0,0-.98,2.264,2.935,2.935,0,0,0,2.153,3.777c6.786,1.72,8.722,10,6.243,14.674a7.992,7.992,0,0,1-11.56,3.089,6.158,6.158,0,0,1-2.9-3.046,1.948,1.948,0,0,1,.7-2.439,1.841,1.841,0,0,1,2.681.6,4.3,4.3,0,0,0,3.021,2.11c1.67.435,3.9-1.286,4.235-2.811a7.086,7.086,0,0,0-1.421-6.146,16.667,16.667,0,0,0-3.549-2.7c-1.388-.971-2.811-1.891-4.338-2.912l-.408.492a91.271,91.271,0,0,0-9.893,14.605c-.53.977-1.137,1.871-2.435,1.836a1.918,1.918,0,0,1-1.921-2.214c.224-3.073.506-6.147.571-9.224a26.314,26.314,0,0,0-1.979-10.716c-1.145-2.753-2.211-3.183-4.356-.9a19,19,0,0,0-5.174,11.951c-.218,3.036-.207,6.089-.313,9.133-.058,1.676-.537,2.221-1.955,2.287-1.3.061-2-.585-2.139-2.15-.131-1.43-.2-2.871-.209-4.307-.028-3.872-.01-7.745-.01-11.618l-.408-.07c-1.028,1.563-2.019,3.151-3.092,4.682-1.831,2.611-3.625,5.255-5.6,7.759a10.261,10.261,0,0,1-9.81,3.967c-5.924-.68-10.04-6.3-10.588-11.187A4.284,4.284,0,0,0,274.407,356.776Zm12.145-9.684c-2.7-.615-4.43,1.411-6.414,2.8a3.459,3.459,0,0,0-1.055,1.324,10.635,10.635,0,0,0,2.632,11.667c4.1,3.605,9.092,2.143,11.3-2.155a9.861,9.861,0,0,0-.076-9.389C291.66,348.86,290.076,346.575,286.551,347.092Z" transform="translate(0 -69.395)" fill="#f5b432"/>
      <path id="Pfad_2" data-name="Pfad 2" d="M825.461,291.62c-.722,1.418-1.3,2.642-1.954,3.822a13.334,13.334,0,0,1-4.142,5.136,3.788,3.788,0,0,1-3.874.369c-.409-.188-.906-.189-1.305-.389-1.221-.612-1.281-1.882-1.456-2.982-.528-3.328-.943-6.674-1.409-10.012-.029-.208-.109-.409-.237-.872-.543.858-.97,1.538-1.4,2.215-.329.515-.628,1.055-1,1.533a1.948,1.948,0,0,1-2.553.726,2.124,2.124,0,0,1-.343-2.6c.855-1.749,1.747-3.48,2.65-5.2a29.6,29.6,0,0,0,1.515-2.748,10.4,10.4,0,0,0,.759-3.1c.286-4.568.3-9.16.754-13.709a17.745,17.745,0,0,1,2.824-8.756,5.067,5.067,0,0,1,4.462-2.488,3.882,3.882,0,0,1,3.455,2.823,8.552,8.552,0,0,1,.545,2.753c.184,3.876-1.108,7.412-2.727,10.835-1.527,3.231-3.2,6.394-4.716,9.63a5.746,5.746,0,0,0-.625,2.8c.4,4.262.939,8.511,1.454,12.762.143,1.182.373,2.354.62,3.885a12.981,12.981,0,0,0,1.325-1.28,36.4,36.4,0,0,0,5.016-9.881c.653-1.832,1.246-3.685,1.862-5.53a2.081,2.081,0,0,1,2.6-1.507,2.051,2.051,0,0,1,1.134,2.685c-.064.207-.207.43-.174.622.638,3.719.1,7.654,2.03,11.135.07.126.115.264.186.39,1.242,2.218,2.5,2.325,4.039.305a2.537,2.537,0,0,1,1.875-1.24,1.882,1.882,0,0,1,1.767,2.77c-1.4,2.2-3.233,3.933-6.051,3.8a5.7,5.7,0,0,1-4.776-3.389,42.325,42.325,0,0,1-1.812-4.6C825.716,292.174,825.638,292.017,825.461,291.62Zm-10.636-21.327.426.091c1.045-2.69,2.229-5.337,3.08-8.088a19.921,19.921,0,0,0,.461-4.708c.016-.29-.3-.6-.464-.9-.256.163-.594.271-.751.5a5.558,5.558,0,0,0-.915,1.684c-.576,2.343-1.135,4.7-1.546,7.073A39.617,39.617,0,0,0,814.825,270.293Z" transform="translate(-437.141 0)" fill="#f5b432"/>
      <path id="Pfad_3" data-name="Pfad 3" d="M897.486,334.135a2.456,2.456,0,0,1-2.656,2.572,2.536,2.536,0,0,1-2.279-2.417,2.955,2.955,0,0,1,2.632-2.867A2.52,2.52,0,0,1,897.486,334.135Z" transform="translate(-505.179 -61.647)" fill="#f5b432"/>
      <path id="Pfad_4" data-name="Pfad 4" d="M752.381,461.373a1.952,1.952,0,0,1,1.985,1.839,2,2,0,0,1-1.962,1.909,1.916,1.916,0,0,1-1.948-1.885A1.865,1.865,0,0,1,752.381,461.373Z" transform="translate(-394.105 -163.228)" fill="#f5b432"/>
    </g>
    <line id="Linie_2" data-name="Linie 2" x1="14" y2="44" transform="translate(170.5 5.5)" fill="none" stroke="#f5b432" stroke-linecap="round" stroke-width="3"/>
  </g>
</svg>
