<svg xmlns="http://www.w3.org/2000/svg" xmlns:xlink="http://www.w3.org/1999/xlink" width="48" height="48" viewBox="0 0 48 48">
  <defs>
    <clipPath id="clip-ICON-COPY">
      <rect width="48" height="48"/>
    </clipPath>
  </defs>
  <g id="ICON-COPY" clip-path="url(#clip-ICON-COPY)">
    <path id="Pfad_16" data-name="Pfad 16" d="M324.662,599.786a3.112,3.112,0,0,0-3.3-2.908h-5.319V591.2c0-.016,0-.033,0-.049a3.111,3.111,0,0,0-3.3-2.9h-19.4l-.048,0a3.111,3.111,0,0,0-3.257,2.957v24.776c0,.018,0,.036,0,.054a3.113,3.113,0,0,0,3.3,2.911h5.321v5.672c0,.016,0,.031,0,.048a3.111,3.111,0,0,0,3.3,2.907h19.4l.048,0a3.112,3.112,0,0,0,3.259-2.959V599.832C324.664,599.817,324.663,599.8,324.662,599.786Zm-22.749-2.911a3.113,3.113,0,0,0-3.261,2.957V615.45l-5.147,0V591.743h19.05v5.135h-10.6Zm19.269,27.208-19.048-.008V600.359l19.048.01Z" transform="translate(-283.026 -584.24)"/>
  </g>
</svg>
